<?xml version="1.0" encoding="UTF-8"?>
<svg id="Capa_2" xmlns="http://www.w3.org/2000/svg" viewBox="0 0 568.78 235.68">
  <defs>
    <style>
      .cls-1 {
        fill: #f2ede9;
      }
    </style>
  </defs>
  <g id="Capa_1-2" data-name="Capa_1">
    <g>
      <path class="cls-1" d="M97.79,39.06h-21.87c-3.02-12.91-10.99-19.37-23.9-19.37-9.69,0-17.13,3.86-22.34,11.56-4.48,6.77-6.72,15.78-6.72,27.03,0,12.71,2.81,22.39,8.44,29.06,4.89,5.73,11.5,8.59,19.84,8.59,7.19,0,12.91-1.88,17.18-5.63,4.27-3.75,6.77-9.11,7.5-16.09h22.34c-.73,13.54-5.94,24-15.62,31.4-8.34,6.46-19.01,9.69-32.03,9.69-16.67,0-29.58-5.83-38.74-17.5C3.95,87.69,0,74.36,0,57.8,0,38.85,5.21,24.16,15.62,13.75,24.68,4.58,36.5,0,51.08,0c17.29,0,30.36,5.78,39.21,17.34,4.37,5.73,6.87,12.97,7.5,21.72Z"/>
      <path class="cls-1" d="M127.47,0v111.86h-21.56V0h21.56Z"/>
      <path class="cls-1" d="M164.35,29.06v82.8h-21.56V29.06h21.56ZM153.41.62c2.81,0,5.18.99,7.11,2.97,1.93,1.98,2.89,4.37,2.89,7.19s-.96,5.18-2.89,7.11c-1.93,1.93-4.3,2.89-7.11,2.89s-5.21-.96-7.18-2.89c-1.98-1.93-2.97-4.3-2.97-7.11s.99-5.21,2.97-7.19c1.97-1.98,4.37-2.97,7.18-2.97Z"/>
      <path class="cls-1" d="M178.39,29.06h21.56v11.72c5.83-8.96,14.06-13.44,24.68-13.44,9.48,0,16.66,2.81,21.56,8.44,4.16,5,6.25,11.77,6.25,20.31v55.77h-21.4v-51.4c0-9.89-4.64-14.84-13.9-14.84-5.21,0-9.37,1.48-12.5,4.45-3.13,2.97-4.69,6.9-4.69,11.79v49.99h-21.56V29.06Z"/>
      <path class="cls-1" d="M286.77,29.06v82.8h-21.56V29.06h21.56ZM275.83.62c2.81,0,5.18.99,7.11,2.97,1.93,1.98,2.89,4.37,2.89,7.19s-.96,5.18-2.89,7.11c-1.93,1.93-4.3,2.89-7.11,2.89s-5.21-.96-7.18-2.89c-1.98-1.93-2.97-4.3-2.97-7.11s.99-5.21,2.97-7.19c1.97-1.98,4.37-2.97,7.18-2.97Z"/>
      <path class="cls-1" d="M373.04,59.36h-20.47c-1.25-5.41-3.04-9.22-5.39-11.4-2.34-2.19-5.65-3.28-9.92-3.28-6.46,0-10.93,2.29-13.43,6.87-2.71,5.31-4.06,11.82-4.06,19.53s1.53,13.98,4.61,18.51c3.07,4.53,7.32,6.79,12.73,6.79,4.27,0,7.58-1.12,9.92-3.36,2.34-2.24,4.19-5.96,5.54-11.17h20.47c-1.04,10.42-5.21,18.49-12.5,24.21-6.36,5.1-14.22,7.66-23.59,7.66-13.12,0-23.07-4.22-29.84-12.66-5.94-7.29-8.91-17.13-8.91-29.53,0-15,3.91-26.35,11.72-34.06,6.77-6.77,15.93-10.15,27.49-10.15s19.79,3.18,26.25,9.53c5.52,5.62,8.64,13.12,9.37,22.5Z"/>
      <path class="cls-1" d="M116.36,187.56v48.12h-22.96v-111.86h78.58v19.22h-55.62v25.31h49.05v19.22h-49.05Z"/>
      <path class="cls-1" d="M252.43,206.62h-21.4v-11.72c-5.83,8.96-14.11,13.43-24.84,13.43-9.48,0-16.67-2.81-21.56-8.43-4.16-4.89-6.25-11.61-6.25-20.15v-55.93h21.56v51.4c0,9.9,4.58,14.84,13.75,14.84,5.21,0,9.4-1.46,12.58-4.37,3.17-2.91,4.76-6.87,4.76-11.87v-49.99h21.4v82.8Z"/>
      <path class="cls-1" d="M265.21,123.83h21.56v11.72c5.83-8.96,14.06-13.44,24.68-13.44,9.48,0,16.66,2.81,21.56,8.44,4.16,5,6.25,11.77,6.25,20.31v55.77h-21.4v-51.4c0-9.89-4.64-14.84-13.9-14.84-5.21,0-9.37,1.48-12.5,4.45-3.13,2.97-4.69,6.9-4.69,11.79v49.99h-21.56v-82.8Z"/>
      <path class="cls-1" d="M351.48,123.83h21.56v11.72c5.83-8.96,14.06-13.44,24.68-13.44,9.48,0,16.66,2.81,21.56,8.44,4.16,5,6.25,11.77,6.25,20.31v55.77h-21.4v-51.4c0-9.89-4.64-14.84-13.9-14.84-5.21,0-9.37,1.48-12.5,4.45-3.13,2.97-4.69,6.9-4.69,11.79v49.99h-21.56v-82.8Z"/>
      <path class="cls-1" d="M510.54,170.85h-55.62c.31,6.67,1.35,11.41,3.12,14.22,3.02,4.58,7.76,6.87,14.22,6.87,8.02,0,13.38-3.33,16.09-10h21.25c-2.4,8.12-7.06,14.55-13.98,19.29-6.93,4.74-15.03,7.11-24.29,7.11-12.6,0-22.29-4.22-29.05-12.65-5.94-7.39-8.91-17.13-8.91-29.21,0-14.68,3.85-26.04,11.56-34.06,6.77-6.87,15.67-10.31,26.71-10.31,8.43,0,15.83,2.09,22.18,6.25,6.35,4.16,10.88,10,13.59,17.5,2.19,5.83,3.28,12.86,3.28,21.09,0,1.04-.05,2.34-.16,3.91ZM488.2,156.63c-1.04-12.08-6.61-18.12-16.71-18.12-9.48,0-14.9,6.04-16.25,18.12h32.96Z"/>
      <path class="cls-1" d="M541.09,94.77v111.86h-21.56v-111.86h21.56Z"/>
      <g>
        <polygon class="cls-1" points="564.73 99.97 564.73 107.59 563 107.59 563 102.75 559.97 107.59 558.24 107.59 558.24 102.75 555.22 107.59 553.49 107.59 553.49 102.99 555.22 102.99 555.22 104.96 558.24 99.97 559.97 99.97 559.97 104.96 563 99.97 564.73 99.97"/>
        <path class="cls-1" d="M559.51,113.3c-5.11,0-9.27-4.16-9.27-9.27s4.16-9.27,9.27-9.27,9.27,4.16,9.27,9.27-4.16,9.27-9.27,9.27ZM559.51,96.21c-4.31,0-7.82,3.51-7.82,7.82s3.51,7.82,7.82,7.82,7.82-3.51,7.82-7.82-3.51-7.82-7.82-7.82Z"/>
      </g>
    </g>
  </g>
</svg>