<?xml version="1.0" encoding="UTF-8"?>
<svg id="Capa_2" xmlns="http://www.w3.org/2000/svg" viewBox="0 0 905.89 148.52">
  <defs>
    <style>
      .cls-1 {
        fill: #5fc8f2;
      }
    </style>
  </defs>
  <g id="Capa_1-2" data-name="Capa_1">
    <g>
      <path class="cls-1" d="M268.71,99.49h-72.73c.41,8.72,1.77,14.91,4.08,18.59,3.95,6,10.14,8.99,18.59,8.99,10.48,0,17.5-4.36,21.04-13.07h27.79c-3.14,10.62-9.23,19.03-18.28,25.23-9.06,6.2-19.65,9.29-31.77,9.29-16.48,0-29.15-5.52-38-16.55-7.77-9.67-11.65-22.4-11.65-38.2,0-19.2,5.04-34.05,15.12-44.54,8.85-8.99,20.49-13.48,34.93-13.48,11.03,0,20.7,2.73,29.01,8.17,8.3,5.45,14.23,13.07,17.77,22.88,2.86,7.63,4.29,16.82,4.29,27.58,0,1.36-.07,3.06-.2,5.11ZM239.49,80.9c-1.36-15.8-8.65-23.7-21.86-23.7-12.4,0-19.48,7.9-21.25,23.7h43.1Z"/>
      <path class="cls-1" d="M381.09,0v146.28h-28.19v-12.05c-6.54,9.54-16.42,14.3-29.63,14.3-14.3,0-25.81-5.99-34.53-17.98-7.49-10.21-11.23-22.95-11.23-38.2,0-18.11,4.76-32.41,14.3-42.9,8.31-9.12,18.73-13.69,31.26-13.69,13.21,0,23.15,5.04,29.83,15.12V0h28.19ZM329.4,58.84c-7.08,0-12.8,3.06-17.16,9.19-4.36,6.13-6.54,14.17-6.54,24.11s2.14,17.74,6.43,23.8c4.29,6.06,10.04,9.09,17.26,9.09s12.97-2.99,17.26-8.99c4.29-5.99,6.44-13.96,6.44-23.9s-2.18-18.15-6.54-24.21c-4.36-6.06-10.08-9.09-17.16-9.09Z"/>
      <path class="cls-1" d="M621.04,35.75c17.84,0,31.53,5.72,41.06,17.16,8.31,9.81,12.46,22.88,12.46,39.23,0,18.8-5.38,33.23-16.14,43.31-9.4,8.72-21.86,13.07-37.39,13.07-17.85,0-31.53-5.65-41.06-16.96-8.31-9.94-12.46-23.09-12.46-39.43,0-18.66,5.38-33.03,16.14-43.11,9.4-8.85,21.86-13.28,37.39-13.28ZM621.04,58.43c-7.63,0-13.76,3.1-18.39,9.3-4.63,6.2-6.95,14.34-6.95,24.41,0,10.9,2.59,19.48,7.76,25.74,4.63,5.31,10.49,7.97,17.57,7.97,7.62,0,13.79-3.1,18.49-9.3,4.7-6.2,7.05-14.33,7.05-24.41,0-10.76-2.66-19.27-7.97-25.54-4.63-5.45-10.49-8.17-17.57-8.17Z"/>
      <path class="cls-1" d="M684.21,38h28.19v20.63c3.54-15.25,13.62-22.88,30.23-22.88h5.52l.2,27.78c-3.41-.68-6.95-1.02-10.62-1.02-9.26,0-15.66,1.7-19.2,5.11-4.09,3.81-6.13,10.69-6.13,20.63v58.02h-28.19V38Z"/>
      <path class="cls-1" d="M790.29,0v146.28h-28.19V0h28.19Z"/>
      <path class="cls-1" d="M905.89,0v146.28h-28.19v-12.05c-6.54,9.54-16.42,14.3-29.63,14.3-14.3,0-25.81-5.99-34.53-17.98-7.49-10.21-11.23-22.95-11.23-38.2,0-18.11,4.76-32.41,14.3-42.9,8.31-9.12,18.73-13.69,31.26-13.69,13.21,0,23.15,5.04,29.83,15.12V0h28.19ZM854.2,58.84c-7.08,0-12.8,3.06-17.16,9.19-4.36,6.13-6.54,14.17-6.54,24.11s2.14,17.74,6.43,23.8c4.29,6.06,10.04,9.09,17.26,9.09s12.97-2.99,17.26-8.99c4.29-5.99,6.44-13.96,6.44-23.9s-2.18-18.15-6.54-24.21c-4.36-6.06-10.08-9.09-17.16-9.09Z"/>
      <polygon class="cls-1" points="159.51 38 159.51 146.28 134.99 146.28 134.99 77.54 91.98 146.28 67.46 146.28 67.46 77.54 24.52 146.28 0 146.28 0 80.97 24.52 80.97 24.52 108.89 67.46 38 91.98 38 91.98 108.89 134.99 38 159.51 38"/>
      <polygon class="cls-1" points="395.49 146.28 395.49 38 420.01 38 420.01 106.73 463.02 38 487.54 38 487.54 106.73 530.48 38 554.99 38 554.99 103.31 530.48 103.31 530.48 75.38 487.54 146.28 463.02 146.28 463.02 75.38 420.01 146.28 395.49 146.28"/>
    </g>
  </g>
</svg>