<?xml version="1.0" encoding="UTF-8"?>
<svg id="Capa_2" xmlns="http://www.w3.org/2000/svg" viewBox="0 0 342.85 56.21">
  <defs>
    <style>
      .cls-1 {
        fill: #023246;
      }
    </style>
  </defs>
  <g id="Capa_1-2" data-name="Capa_1">
    <g>
      <path class="cls-1" d="M101.7,37.66h-27.53c.15,3.3.67,5.64,1.55,7.04,1.49,2.27,3.84,3.4,7.04,3.4,3.97,0,6.62-1.65,7.96-4.95h10.52c-1.19,4.02-3.49,7.2-6.92,9.55-3.43,2.35-7.44,3.52-12.02,3.52-6.24,0-11.03-2.09-14.38-6.26-2.94-3.66-4.41-8.48-4.41-14.46,0-7.27,1.91-12.89,5.72-16.86,3.35-3.4,7.76-5.1,13.22-5.1,4.17,0,7.83,1.03,10.98,3.09,3.14,2.06,5.39,4.95,6.73,8.66,1.08,2.89,1.62,6.37,1.62,10.44,0,.52-.03,1.16-.08,1.93ZM90.64,30.62c-.52-5.98-3.27-8.97-8.27-8.97-4.69,0-7.37,2.99-8.04,8.97h16.31Z"/>
      <path class="cls-1" d="M144.23,0v55.36h-10.67v-4.56c-2.48,3.61-6.21,5.41-11.21,5.41-5.41,0-9.77-2.27-13.07-6.8-2.84-3.87-4.25-8.68-4.25-14.46,0-6.85,1.8-12.27,5.41-16.24,3.14-3.45,7.09-5.18,11.83-5.18,5,0,8.76,1.91,11.29,5.72V0h10.67ZM124.67,22.27c-2.68,0-4.85,1.16-6.49,3.48-1.65,2.32-2.47,5.36-2.47,9.12s.81,6.71,2.43,9.01c1.62,2.29,3.8,3.44,6.53,3.44s4.91-1.13,6.53-3.4c1.62-2.27,2.44-5.28,2.44-9.05s-.83-6.87-2.47-9.16c-1.65-2.29-3.82-3.44-6.5-3.44Z"/>
      <path class="cls-1" d="M235.05,13.53c6.75,0,11.93,2.16,15.54,6.49,3.14,3.71,4.72,8.66,4.72,14.85,0,7.11-2.04,12.58-6.11,16.39-3.56,3.3-8.27,4.95-14.15,4.95-6.75,0-11.93-2.14-15.54-6.42-3.14-3.76-4.72-8.74-4.72-14.92,0-7.06,2.04-12.5,6.11-16.31,3.56-3.35,8.27-5.03,14.15-5.03ZM235.05,22.11c-2.89,0-5.21,1.17-6.96,3.52-1.75,2.35-2.63,5.43-2.63,9.24,0,4.12.98,7.37,2.94,9.74,1.75,2.01,3.97,3.02,6.65,3.02,2.89,0,5.22-1.17,7-3.52,1.78-2.34,2.67-5.42,2.67-9.24,0-4.07-1.01-7.29-3.01-9.67-1.75-2.06-3.97-3.09-6.65-3.09Z"/>
      <path class="cls-1" d="M258.96,14.38h10.67v7.81c1.34-5.77,5.15-8.66,11.44-8.66h2.09l.08,10.52c-1.29-.26-2.63-.39-4.02-.39-3.51,0-5.93.65-7.27,1.93-1.55,1.44-2.32,4.05-2.32,7.81v21.96h-10.67V14.38Z"/>
      <path class="cls-1" d="M299.1,0v55.36h-10.67V0h10.67Z"/>
      <path class="cls-1" d="M342.85,0v55.36h-10.67v-4.56c-2.48,3.61-6.21,5.41-11.21,5.41-5.41,0-9.77-2.27-13.07-6.8-2.84-3.87-4.25-8.68-4.25-14.46,0-6.85,1.8-12.27,5.41-16.24,3.14-3.45,7.09-5.18,11.83-5.18,5,0,8.76,1.91,11.29,5.72V0h10.67ZM323.29,22.27c-2.68,0-4.85,1.16-6.49,3.48-1.65,2.32-2.47,5.36-2.47,9.12s.81,6.71,2.43,9.01c1.62,2.29,3.8,3.44,6.53,3.44s4.91-1.13,6.53-3.4c1.62-2.27,2.44-5.28,2.44-9.05s-.83-6.87-2.47-9.16c-1.65-2.29-3.82-3.44-6.5-3.44Z"/>
      <polygon class="cls-1" points="60.37 14.38 60.37 55.36 51.09 55.36 51.09 29.35 34.81 55.36 25.53 55.36 25.53 29.35 9.28 55.36 0 55.36 0 30.64 9.28 30.64 9.28 41.21 25.53 14.38 34.81 14.38 34.81 41.21 51.09 14.38 60.37 14.38"/>
      <polygon class="cls-1" points="149.68 55.36 149.68 14.38 158.96 14.38 158.96 40.39 175.24 14.38 184.52 14.38 184.52 40.39 200.77 14.38 210.05 14.38 210.05 39.1 200.77 39.1 200.77 28.53 184.52 55.36 175.24 55.36 175.24 28.53 158.96 55.36 149.68 55.36"/>
    </g>
  </g>
</svg>