<?xml version="1.0" encoding="UTF-8"?>
<svg id="Capa_2" xmlns="http://www.w3.org/2000/svg" viewBox="0 0 104.97 181.37">
  <defs>
    <style>
      .cls-1 {
        fill: #5fc8f2;
      }
    </style>
  </defs>
  <g id="Capa_1-2" data-name="Capa_1">
    <g>
      <path class="cls-1" d="M7.72,152.34h26.94c0,18.86,9.65,28.74,28.51,28.74,16.17,0,26.94-8.98,26.94-22.45,0-15.72-11.23-23.8-33.23-23.8h-5.39v-21.78h5.39c19.31,0,31.21-9.21,31.21-23.35,0-13.25-10.33-22.23-26.04-22.23s-26.04,8.98-26.04,27.39H9.29c0-31.21,20.21-49.62,53.66-49.62,18.68,0,33.2,5.71,42.01,15.54V0H0v181.37h15.03c-4.8-7.79-7.31-17.52-7.31-29.03Z"/>
      <path class="cls-1" d="M88.32,121.81v.45c6.78,2.26,12.31,5.11,16.64,8.69v-18.76c-4.15,3.93-9.65,7.09-16.64,9.62Z"/>
    </g>
  </g>
</svg>